<svg width="146" height="24" viewBox="0 0 146 24" fill="none" xmlns="http://www.w3.org/2000/svg">
<path d="M8.36824 3.00386L7.87209 2.13562L6.13561 3.1279L6.63175 3.99614L8.36824 3.00386ZM7.49999 13L6.58085 12.6061L7.49999 13ZM12.5 22C13.0523 22 13.5 21.5523 13.5 21C13.5 20.4477 13.0523 20 12.5 20V22ZM6.63175 3.99614C8.39641 7.08428 7.68574 10.028 6.58085 12.6061L8.41914 13.3939C9.60854 10.6186 10.6036 6.91572 8.36824 3.00386L6.63175 3.99614ZM6.58085 12.6061C5.75115 14.5421 5.56564 16.8539 6.47348 18.7452C7.42104 20.7193 9.44302 22 12.5 22V20C10.057 20 8.82896 19.0307 8.27653 17.8798C7.68437 16.6461 7.74886 14.9579 8.41914 13.3939L6.58085 12.6061Z" fill="#00737A"/>
<path d="M16.6318 3.00386L17.1279 2.13562L18.8644 3.1279L18.3682 3.99614L16.6318 3.00386ZM17.5 13L18.4192 12.6061L17.5 13ZM12.5 22C11.9477 22 11.5 21.5523 11.5 21C11.5 20.4477 11.9477 20 12.5 20V22ZM18.3682 3.99614C16.6036 7.08428 17.3143 10.028 18.4192 12.6061L16.5809 13.3939C15.3915 10.6186 14.3964 6.91572 16.6318 3.00386L18.3682 3.99614ZM18.4192 12.6061C19.2488 14.5421 19.4344 16.8539 18.5265 18.7452C17.579 20.7193 15.557 22 12.5 22V20C14.943 20 16.171 19.0307 16.7235 17.8798C17.3156 16.6461 17.2511 14.9579 16.5809 13.3939L18.4192 12.6061Z" fill="#00737A"/>
<path d="M33.668 18V6.16H35.652V18H33.668ZM44.9301 21.68L46.7221 17.536L46.7381 18.848L42.5781 9.568H44.8501L47.1701 15.072C47.2448 15.2107 47.3195 15.3973 47.3941 15.632C47.4688 15.856 47.5328 16.08 47.5861 16.304L47.1861 16.432C47.2608 16.2293 47.3408 16.016 47.4261 15.792C47.5115 15.5573 47.5915 15.3173 47.6661 15.072L49.6501 9.568H51.9381L48.4181 18L46.9781 21.68H44.9301ZM59.0858 18V9.568H61.0218L61.0538 12.256L60.7818 11.648C60.8991 11.2213 61.1018 10.8373 61.3898 10.496C61.6778 10.1547 62.0084 9.888 62.3818 9.696C62.7658 9.49333 63.1658 9.392 63.5818 9.392C63.7631 9.392 63.9338 9.408 64.0938 9.44C64.2644 9.472 64.4031 9.50933 64.5098 9.552L63.9818 11.712C63.8644 11.648 63.7204 11.5947 63.5498 11.552C63.3791 11.5093 63.2084 11.488 63.0378 11.488C62.7711 11.488 62.5151 11.5413 62.2698 11.648C62.0351 11.744 61.8271 11.8827 61.6458 12.064C61.4644 12.2453 61.3204 12.4587 61.2138 12.704C61.1178 12.9387 61.0698 13.2053 61.0698 13.504V18H59.0858ZM75.3328 18.16C74.4474 18.16 73.6634 17.9733 72.9808 17.6C72.3088 17.2267 71.7808 16.72 71.3968 16.08C71.0234 15.4293 70.8368 14.688 70.8368 13.856C70.8368 13.1947 70.9434 12.592 71.1568 12.048C71.3701 11.504 71.6634 11.0347 72.0368 10.64C72.4208 10.2347 72.8741 9.92533 73.3968 9.712C73.9301 9.488 74.5114 9.376 75.1408 9.376C75.6954 9.376 76.2128 9.48267 76.6928 9.696C77.1728 9.90933 77.5888 10.2027 77.9408 10.576C78.2928 10.9387 78.5594 11.376 78.7408 11.888C78.9328 12.3893 79.0234 12.9387 79.0128 13.536L78.9968 14.224H72.1648L71.7968 12.88H77.3488L77.0928 13.152V12.8C77.0608 12.4693 76.9541 12.1813 76.7728 11.936C76.5914 11.68 76.3568 11.4827 76.0688 11.344C75.7914 11.1947 75.4821 11.12 75.1408 11.12C74.6181 11.12 74.1754 11.2213 73.8128 11.424C73.4608 11.6267 73.1941 11.92 73.0128 12.304C72.8314 12.6773 72.7408 13.1467 72.7408 13.712C72.7408 14.256 72.8528 14.7307 73.0768 15.136C73.3114 15.5413 73.6368 15.856 74.0528 16.08C74.4794 16.2933 74.9754 16.4 75.5408 16.4C75.9354 16.4 76.2981 16.336 76.6288 16.208C76.9594 16.08 77.3168 15.8507 77.7008 15.52L78.6768 16.88C78.3888 17.1467 78.0581 17.376 77.6848 17.568C77.3221 17.7493 76.9381 17.8933 76.5328 18C76.1274 18.1067 75.7274 18.16 75.3328 18.16ZM91.3318 18.16C90.9584 18.16 90.5904 18.1067 90.2278 18C89.8758 17.8827 89.5558 17.728 89.2678 17.536C88.9798 17.344 88.7398 17.1307 88.5478 16.896C88.3558 16.6507 88.2278 16.4053 88.1638 16.16L88.6278 15.952L88.5798 17.968H86.6758V6.16H88.6438V11.52L88.2918 11.36C88.3451 11.104 88.4624 10.864 88.6438 10.64C88.8358 10.4053 89.0704 10.1973 89.3478 10.016C89.6251 9.824 89.9291 9.67467 90.2598 9.568C90.5904 9.45067 90.9264 9.392 91.2678 9.392C92.0251 9.392 92.6918 9.57867 93.2678 9.952C93.8544 10.3253 94.3131 10.8427 94.6438 11.504C94.9851 12.1653 95.1558 12.9173 95.1558 13.76C95.1558 14.6133 94.9904 15.3707 94.6598 16.032C94.3291 16.6933 93.8704 17.216 93.2838 17.6C92.7078 17.9733 92.0571 18.16 91.3318 18.16ZM90.9158 16.432C91.3638 16.432 91.7638 16.32 92.1158 16.096C92.4678 15.8613 92.7451 15.5467 92.9478 15.152C93.1504 14.7467 93.2518 14.2827 93.2518 13.76C93.2518 13.248 93.1504 12.7947 92.9478 12.4C92.7558 12.0053 92.4838 11.696 92.1318 11.472C91.7798 11.248 91.3744 11.136 90.9158 11.136C90.4571 11.136 90.0518 11.248 89.6998 11.472C89.3478 11.696 89.0704 12.0053 88.8678 12.4C88.6651 12.7947 88.5638 13.248 88.5638 13.76C88.5638 14.2827 88.6651 14.7467 88.8678 15.152C89.0704 15.5467 89.3478 15.8613 89.6998 16.096C90.0518 16.32 90.4571 16.432 90.9158 16.432ZM103.054 18V9.568H105.022V18H103.054ZM104.014 7.776C103.619 7.776 103.31 7.68 103.086 7.488C102.873 7.28533 102.766 7.00267 102.766 6.64C102.766 6.29867 102.878 6.02133 103.102 5.808C103.326 5.59467 103.63 5.488 104.014 5.488C104.419 5.488 104.729 5.58933 104.942 5.792C105.166 5.984 105.278 6.26667 105.278 6.64C105.278 6.97067 105.166 7.24267 104.942 7.456C104.718 7.66933 104.409 7.776 104.014 7.776ZM113.438 18V9.568H115.374L115.406 12.256L115.134 11.648C115.251 11.2213 115.454 10.8373 115.742 10.496C116.03 10.1547 116.36 9.888 116.734 9.696C117.118 9.49333 117.518 9.392 117.934 9.392C118.115 9.392 118.286 9.408 118.446 9.44C118.616 9.472 118.755 9.50933 118.862 9.552L118.334 11.712C118.216 11.648 118.072 11.5947 117.902 11.552C117.731 11.5093 117.56 11.488 117.39 11.488C117.123 11.488 116.867 11.5413 116.622 11.648C116.387 11.744 116.179 11.8827 115.998 12.064C115.816 12.2453 115.672 12.4587 115.566 12.704C115.47 12.9387 115.422 13.2053 115.422 13.504V18H113.438ZM129.125 18.16C128.378 18.16 127.706 17.9733 127.109 17.6C126.522 17.216 126.053 16.6987 125.701 16.048C125.359 15.3867 125.189 14.6293 125.189 13.776C125.189 12.9333 125.359 12.1813 125.701 11.52C126.042 10.8587 126.506 10.3413 127.093 9.968C127.69 9.584 128.362 9.392 129.109 9.392C129.514 9.392 129.903 9.456 130.277 9.584C130.661 9.712 131.002 9.888 131.301 10.112C131.599 10.3253 131.834 10.5653 132.005 10.832C132.186 11.0987 132.287 11.376 132.309 11.664L131.781 11.728V6.16H133.749V18H131.845L131.797 16.016L132.181 16.048C132.17 16.3147 132.074 16.5707 131.893 16.816C131.722 17.0613 131.498 17.2853 131.221 17.488C130.943 17.6907 130.618 17.856 130.245 17.984C129.882 18.1013 129.509 18.16 129.125 18.16ZM129.509 16.496C129.967 16.496 130.373 16.3787 130.725 16.144C131.077 15.9093 131.349 15.5893 131.541 15.184C131.743 14.7787 131.845 14.3093 131.845 13.776C131.845 13.2533 131.743 12.7893 131.541 12.384C131.349 11.968 131.077 11.648 130.725 11.424C130.373 11.1893 129.967 11.072 129.509 11.072C129.05 11.072 128.645 11.1893 128.293 11.424C127.941 11.648 127.663 11.968 127.461 12.384C127.269 12.7893 127.173 13.2533 127.173 13.776C127.173 14.3093 127.269 14.7787 127.461 15.184C127.663 15.5893 127.941 15.9093 128.293 16.144C128.645 16.3787 129.05 16.496 129.509 16.496Z" fill="black"/>
</svg>
