<svg width="24" height="24" viewBox="0 0 24 24" fill="none" xmlns="http://www.w3.org/2000/svg">
<path d="M7.86824 3.00386L7.37209 2.13562L5.63561 3.1279L6.13175 3.99614L7.86824 3.00386ZM6.99999 13L6.08085 12.6061L6.99999 13ZM12 22C12.5523 22 13 21.5523 13 21C13 20.4477 12.5523 20 12 20V22ZM6.13175 3.99614C7.89641 7.08428 7.18574 10.028 6.08085 12.6061L7.91914 13.3939C9.10854 10.6186 10.1036 6.91572 7.86824 3.00386L6.13175 3.99614ZM6.08085 12.6061C5.25115 14.5421 5.06564 16.8539 5.97348 18.7452C6.92104 20.7193 8.94302 22 12 22V20C9.55697 20 8.32896 19.0307 7.77653 17.8798C7.18437 16.6461 7.24886 14.9579 7.91914 13.3939L6.08085 12.6061Z" fill="#00737A"/>
<path d="M16.1318 3.00386L16.6279 2.13562L18.3644 3.1279L17.8682 3.99614L16.1318 3.00386ZM17 13L17.9192 12.6061L17 13ZM12 22C11.4477 22 11 21.5523 11 21C11 20.4477 11.4477 20 12 20V22ZM17.8682 3.99614C16.1036 7.08428 16.8143 10.028 17.9192 12.6061L16.0809 13.3939C14.8915 10.6186 13.8964 6.91572 16.1318 3.00386L17.8682 3.99614ZM17.9192 12.6061C18.7488 14.5421 18.9344 16.8539 18.0265 18.7452C17.079 20.7193 15.057 22 12 22V20C14.443 20 15.671 19.0307 16.2235 17.8798C16.8156 16.6461 16.7511 14.9579 16.0809 13.3939L17.9192 12.6061Z" fill="#00737A"/>
</svg>
